PathFileType	4	(X/Y/Z)	pose_F01_0-96.trc
DataRate	CameraRate	NumFrames	NumMarkers	Units	OrigDataRate	OrigDataStartFrame	OrigNumFrames
30	30	11	21	m	30	32	96
Frame#	Time	CHip			RHip			RKnee			RAnkle			RBigToe			RSmallToe			RHeel			LHip			LKnee			LAnkle			LBigToe			LSmallToe			LHeel			Neck			Nose			RShoulder			RElbow			RWrist			LShoulder			LElbow			LWrist			
		X1	Y1	Z1	X2	Y2	Z2	X3	Y3	Z3	X4	Y4	Z4	X5	Y5	Z5	X6	Y6	Z6	X7	Y7	Z7	X8	Y8	Z8	X9	Y9	Z9	X10	Y10	Z10	X11	Y11	Z11	X12	Y12	Z12	X13	Y13	Z13	X14	Y14	Z14	X15	Y15	Z15	X16	Y16	Z16	X17	Y17	Z17	X18	Y18	Z18	X19	Y19	Z19	X20	Y20	Z20	X21	Y21	Z21	
32	1.0666666666666667	-0.26013786946004547	1.8420634670540332	-0.6647422155346204	-0.2722663154430064	1.8383810724555558	-0.6015860233847866																-0.24986432790832777	1.8443085606470528	-0.7284594793084458	-0.23834037633674518	1.6952025607505912	-0.5945133195692163													-0.25729009141457465	1.995234711200858	-0.6859931381578533	-0.24199439265337555	2.0576267400842037	-0.6682485192788362	-0.2745166539643897	1.9931239654137785	-0.5950168878165231	-0.279949365917104	1.9112886519301926	-0.533147955714175	-1.523134231693654	1.8694750271631349	0.7614795944951515	-0.23839015032570857	1.9987033019477207	-0.7796923596581621	-0.2458867737990086	1.9311038637707334	-0.8135062089294517	-1.028112496710067	1.7716311067653077	-0.07910868787611122
33	1.1	-0.26255008332884416	1.840441210599971	-0.6744191666991782	-0.27378479122965593	1.8374148305615416	-0.608290614779266																-0.2534704984344569	1.8442495001302563	-0.7326995508613058	-0.23834037633674518	1.6952025607505912	-0.5945133195692163													-0.25908851842813135	1.9950023197132005	-0.6921754740310032	-0.24073754948469275	2.0567188514084824	-0.6731869865838126	-0.2742211903180342	1.995013404541376	-0.6035280243192637	-0.2660970886619787	1.9139825594243962	-0.5518123828227649	-0.24037154185932214	1.9730976635329276	-0.6155781572195679	-0.24376289780294869	1.998436394278482	-0.7784008811468182	-0.24707503641881307	1.9271421216549234	-0.8165320372501734	-1.0181816034733784	1.7775320970905422	-0.10554603162855053
34	1.1333333333333333	-0.2659590447678613	1.8414407564814574	-0.6752131449811516	-0.27422000178945466	1.8391402319894636	-0.608302613727518																-0.254557035547204	1.8454192847661537	-0.7357165961648423	-0.23834037633674518	1.6952025607505912	-0.5945133195692163													-0.2600629704133327	1.9963720909563099	-0.6955975184213571	-0.24048944885165485	2.054437891225575	-0.6809944622984098	-0.2739926862731662	1.9979511284729101	-0.6122524888382666	-0.2594729042370144	1.9241447355251682	-0.5685684875227364	-0.24030210651682812	1.9848767914294	-0.6268411728833676	-0.2469625353153866	1.9980424438841693	-0.7791442200119572	-0.250300645807947	1.931233306815503	-0.8176166454096488	-1.0179351226051123	1.783592408122948	-0.11356563384784042
35	1.1666666666666667	-0.2693158216954295	1.8471541527935398	-0.6765662496273055	-0.27944215011260826	1.8453255783294131	-0.6159541017710681																-0.2620120261135878	1.8492921175362778	-0.7408115427815782	-0.23834037633674518	1.6952025607505912	-0.5945133195692163													-0.2600573789471148	1.9952859757087258	-0.6952491163652699	-0.2392705542452438	2.0531846777135176	-0.6865666062824907	-0.2708327722626716	1.9951670595309348	-0.6105649166143785	-0.2487452149519006	1.9271055642859007	-0.5971727744138395	-0.23222734543056575	1.9785742548952463	-0.6547052325285958	-0.2524457164740676	1.9968232634071064	-0.7776787517140469	-0.2593346832388185	1.930532577901136	-0.8086881640245963	-1.0210590714729353	1.7849139290741383	-0.12479198189377248
36	1.2	-0.2712304162878989	1.8438745970962562	-0.6742307209823266	-0.27921032563807013	1.8424390172674747	-0.6157112625318065																-0.2640379767121244	1.8455339888878408	-0.7384610554486372	-0.23834037633674518	1.6952025607505912	-0.5945133195692163													-0.2618245451208749	1.9930232418595832	-0.7009689254353613	-0.23673132053462653	2.052184674653828	-0.6965951008500245	-0.27083481533835024	1.9913594991858434	-0.6185988818005389	-0.24218247306676613	1.9293608632488939	-0.6125275293792887	-0.23477976980671725	1.9920988118431517	-0.6667997065797934	-0.25321742983400286	1.9955228250670662	-0.7805336762236836	-0.2603571188443011	1.927062376780257	-0.8113306868952979	-1.0226879404481275	1.7845582411424383	-0.12817080060116895
37	1.2333333333333334	-0.27018441401076	1.8401538105171293	-0.6792439572579518	-0.27619743753057735	1.8385325763261755	-0.6229206856190725																-0.2627171794520392	1.842595516264064	-0.7436040101386407	-0.23834037633674518	1.6952025607505912	-0.5945133195692163													-0.26143320207102116	1.9934277347996374	-0.7093910123324947	-0.2358733527331707	2.0507679359834894	-0.7128962676754977	-0.26541120675552654	1.9925712642614346	-0.6284923897432039	-0.2522125638108441	1.930387064376584	-0.6272201171744949	-0.23014078917337916	1.9803531820498688	-0.6856349416907932	-0.25573153157187145	1.9942954924044773	-0.7891436721664963	-0.26365675418803775	1.9256413465151718	-0.8121077520510168	-1.019290171711313	1.7819687817147536	-0.13635220794480052
38	1.2666666666666666	-0.26841128922789464	1.846114512155151	-0.6935023963028338	-0.273829139204663	1.8416595155637943	-0.6342205728064259																-0.2592106600051196	1.847031745975612	-0.7514695968655792	-0.23834037633674518	1.6952025607505912	-0.5945133195692163													-0.26104416616740084	1.9947525537304038	-0.717735235433424	-0.2363535115615316	2.050697538157927	-0.7241914665741674	-0.26824119639809596	1.9943533644948204	-0.6380673495402586	-0.25853444484295646	1.9281327997427251	-0.6203222801649031	-0.23789912922630455	1.9776298037060225	-0.6839083265182097	-0.25518386203349164	1.9939548675318821	-0.7974695787610377	-0.26207732012423746	1.9265483073074137	-0.8174573028611853	-1.0177573364760295	1.782470814728949	-0.14125343011141406
39	1.3	-0.2678339804780133	1.8471339955441703	-0.702265719809588	-0.27247304395209915	1.8432063159788672	-0.6399048806833714																-0.2575591027496384	1.8475691100949314	-0.7570464434130473	-0.23834037633674518	1.6952025607505912	-0.5945133195692163													-0.2626955499422101	1.996094517697705	-0.7239161032129934	-0.23879407655964496	2.053132445271933	-0.7330716557095018	-0.27085553079952457	1.9970159850672171	-0.6473316578544231	-0.26942539057264764	1.9255448549009269	-0.5917997638731378	-0.23964420694186028	1.972399237864809	-0.6694539036988444	-0.2523455487040216	1.9954296041498483	-0.8078554015907308	-0.25997795483018193	1.924915613589612	-0.830816594434469	-0.9926942660992026	1.775729615323754	-0.18461789135326043
40	1.3333333333333333	-0.26928152606867717	1.8506346439778025	-0.7055832840298878	-0.2739034254657796	1.8498720023939859	-0.6435518185834189																-0.25976473784493753	1.8509549020787506	-0.7631812268958402	-0.23834037633674518	1.6952025607505912	-0.5945133195692163													-0.2640600207636057	1.9983717938782282	-0.7385272875705279	-0.24328137460852547	2.0555043374322857	-0.7490557717313553	-0.2728397385316148	2.0013429862073444	-0.6547204208899948	-0.27918874903577595	1.928403889071999	-0.5694578401171274	-0.2464934149518225	1.9745543001738413	-0.6637392957050715	-0.25329876723346756	1.9950515803552755	-0.8219671512803874	-1.1055343290368578	1.8257478458069551	-0.04094942812425819	-0.9687073336881115	1.7625795950595045	-0.23288972943903727
41	1.3666666666666667	-0.2666211472571568	1.8515748157990823	-0.7080059082371886	-0.27107113656052284	1.8520989368753178	-0.6461854488882753																-0.25930739053476887	1.8529589819883359	-0.7635800251940645	-0.23834037633674518	1.6952025607505912	-0.5945133195692163													-0.2656818076314242	1.9978133630817254	-0.744198117153888	-0.24495148979459347	2.0557151880289495	-0.755064019974493	-0.2744206932627043	2.0011556962598154	-0.6600699997229115	-0.28145035366460336	1.931044119347709	-0.5679318313550151	-0.25554154213393687	1.9826801070293931	-0.6587122927427338	-0.25184971330388967	1.9936940467906632	-0.8267325779115624	-0.26074570025629523	1.9178765756482477	-0.8442605465296863	-0.9747870276963776	1.757367860191484	-0.22139252226333145
42	1.4	-0.2680304540289122	1.846252685010325	-0.7022876795790892	-0.2734940963668553	1.845265980797717	-0.6430667323364438																-0.2586390179269288	1.84762935626248	-0.7600440431613286	-0.23834037633674518	1.6952025607505912	-0.5945133195692163													-0.26675918107927404	1.994609401089971	-0.7471953776558693	-0.2440236424014941	2.052665178287077	-0.7706121794361636	-0.277299991300303	2.0010255297669	-0.669398947383548	-0.27605971045882804	1.9376605816596968	-0.5787624452365928	-0.2491077121284626	1.9929577607370028	-0.6773958404064693	-0.2530146743828009	1.9857878323297233	-0.8294444268992766	-0.25901289730447774	1.9141735299161786	-0.8462901604196619	-0.9850156559702834	1.755126966453075	-0.20349601767935138
